<?xml version="1.0" encoding="UTF-8"?>
<!DOCTYPE svg PUBLIC "-//W3C//DTD SVG 1.1//EN" "http://www.w3.org/Graphics/SVG/1.1/DTD/svg11.dtd">
<!-- Creator: CorelDRAW X8 -->
<svg xmlns="http://www.w3.org/2000/svg" xml:space="preserve" width="233px" height="300px" version="1.1" style="shape-rendering:geometricPrecision; text-rendering:geometricPrecision; image-rendering:optimizeQuality; fill-rule:evenodd; clip-rule:evenodd"
viewBox="0 0 2330 3000"
 xmlns:xlink="http://www.w3.org/1999/xlink">
 <defs>
  <style type="text/css">
   <![CDATA[
    .fil0 {fill:#C1DBA1;fill-rule:nonzero}
   ]]>
  </style>
 </defs>
 <g id="Слой_x0020_1">
  <metadata id="CorelCorpID_0Corel-Layer"/>
  <g id="_3072760030608">
   <path class="fil0" d="M2087 1915c12,0 19,-7 19,-19 0,-24 -21,-44 -47,-44 -27,0 -48,20 -48,44 0,12 7,19 19,19 5,0 10,-1 16,-2 4,-1 9,-3 13,-3 2,0 7,2 11,3 6,1 12,2 17,2zm-13 -18l0 0c-6,-1 -11,-3 -15,-3 -5,0 -11,2 -17,3 -4,1 -9,2 -12,2 -1,0 -2,0 -3,0 0,0 0,-1 0,-3 0,-15 14,-28 32,-28 17,0 31,13 31,28 0,2 0,3 0,3 0,0 -1,0 -3,0 -3,0 -8,-1 -13,-2z"/>
   <path class="fil0" d="M2036 1838c0,-14 -10,-25 -21,-25 -12,0 -22,11 -22,25 0,13 10,24 22,24 11,0 21,-11 21,-24zm-26 0l0 0c0,-5 2,-9 5,-9 2,0 4,4 4,9 0,5 -2,8 -4,8 -3,0 -5,-3 -5,-8z"/>
   <path class="fil0" d="M2060 1848c12,0 21,-12 21,-25 0,-14 -9,-25 -21,-25 -12,0 -21,11 -21,25 0,13 9,25 21,25zm-5 -25l0 0c0,-5 3,-9 5,-9 2,0 5,4 5,9 0,5 -3,8 -5,8 -2,0 -5,-3 -5,-8z"/>
   <path class="fil0" d="M2106 1862c11,0 21,-11 21,-24 0,-14 -10,-25 -21,-25 -12,0 -22,11 -22,25 0,13 10,24 22,24zm-5 -24l0 0c0,-5 2,-9 5,-9 2,0 5,4 5,9 0,5 -3,8 -5,8 -3,0 -5,-3 -5,-8z"/>
   <path class="fil0" d="M2271 1712l-195 -146c-4,-3 -9,-5 -14,-5l-1 0c-5,0 -10,2 -15,5l-195 146c-10,8 -13,23 -4,34l16 22c4,6 12,10 19,10 4,0 7,-1 11,-3l0 205c0,14 11,24 24,24l289 0c13,0 24,-10 24,-24l0 -205c3,2 7,3 10,3 8,0 15,-4 20,-10l16 -22c8,-11 6,-26 -5,-34zm-362 52l0 0 152 -114 153 114 0 216c0,5 -4,8 -8,8l-289 0c-5,0 -8,-3 -8,-8l0 -216zm152 -187l0 0 0 1 1 0c2,0 3,0 5,1l195 146c3,3 4,8 1,11l-16 22c-2,2 -4,4 -7,4 -1,0 -3,-1 -5,-2l-169 -127c-1,-1 -3,-1 -5,-1 -1,0 -3,0 -4,1l-170 127c-1,1 -3,2 -5,2 -2,0 -5,-2 -6,-4l-17 -22c-1,-1 -1,-3 -1,-6 0,-2 1,-4 3,-5l195 -146c1,-1 3,-1 5,-1l0 -1 0 0z"/>
   <path class="fil0" d="M1993 1931c32,24 64,38 65,39 1,0 2,1 3,1 1,0 2,0 3,-1 2,0 33,-13 65,-37 19,-14 34,-29 45,-45 15,-20 22,-41 22,-63 0,-43 -35,-78 -79,-78 -21,0 -41,8 -56,24 -14,-16 -34,-24 -56,-24 -43,0 -78,35 -78,78 0,20 7,41 21,60 11,16 26,31 45,46zm-50 -106l0 0c0,-34 28,-62 62,-62 20,0 38,9 50,25 1,2 4,3 6,3 3,0 5,-1 7,-3 12,-16 30,-25 49,-25 35,0 63,28 63,62 0,74 -98,120 -118,129 -21,-10 -119,-61 -119,-129z"/>
   <path class="fil0" d="M420 651c-2,-2 -5,-2 -7,-1l-69 26c-4,0 -8,-1 -12,-1 -4,0 -8,1 -12,1l-70 -26c-2,-1 -4,-1 -6,1 -2,1 -4,4 -4,6l0 111 -74 0c-32,0 -61,16 -78,40l-9 0c-15,0 -27,-11 -27,-26 0,0 0,-1 0,-1l0 -126c0,-15 -12,-26 -26,-26 -14,0 -26,11 -26,26l0 129c0,1 0,2 0,3 3,39 33,69 71,73 0,1 0,3 0,4l0 129c0,15 11,26 25,26l10 0c15,0 26,-11 26,-26l0 -49c0,0 0,0 0,-1 0,-6 5,-11 11,-11l1 0c6,0 11,5 11,11l0 52c0,14 12,26 26,26l10 0c14,0 26,-12 26,-26l0 -64 27 0 0 62c0,15 11,26 25,26l11 0c14,0 25,-11 25,-26l0 -52c0,0 0,0 0,0 0,-7 5,-12 11,-12l10 0c6,0 11,5 11,11l0 55c0,14 12,26 26,26l10 0c14,0 26,-12 26,-26l0 -166c0,0 0,-1 0,-1 15,-16 24,-37 24,-61 0,0 0,0 0,0l0 -110c0,-2 -1,-5 -3,-6zm-165 17l0 0 41 15c-17,7 -31,19 -41,34l0 -49zm-240 117l0 0 0 -130c0,-7 5,-12 11,-12 6,0 11,5 11,12l0 127c0,0 0,0 0,1 1,22 19,40 42,40l0 0c-3,7 -5,15 -7,22 -31,-3 -57,-33 -57,-60zm187 210l0 0c0,6 -5,11 -11,11l-10 0c-6,0 -11,-5 -11,-11l0 -52c0,-4 -1,-8 -3,-12l35 0 0 64zm171 11l0 0 -10 0c-6,0 -11,-5 -11,-11l0 -55c0,-14 -11,-26 -26,-26l-10 0c-14,0 -25,12 -26,26 0,0 0,0 0,1l0 52c0,7 -4,11 -10,11l-11 0c-6,0 -11,-4 -11,-11l0 -107c0,-4 -3,-7 -7,-7 -4,0 -7,3 -7,7l0 31 -101 0c-14,0 -25,12 -26,26 0,0 0,0 0,0l0 50c0,7 -5,11 -11,11l-10 0c-6,0 -11,-4 -11,-11l0 -129c0,-37 25,-68 58,-78l0 32c0,4 3,8 7,8 4,0 7,-4 7,-8l0 -35c3,0 6,-1 9,-1l11 0 0 54c0,4 3,7 7,7 4,0 7,-3 7,-7l0 -54 20 0 0 71c0,4 3,8 7,8 4,0 7,-4 7,-8l0 -71 17 0c7,43 45,76 90,76 19,0 37,-6 52,-17l0 154c0,6 -5,11 -11,11zm-41 -163l0 0c-42,0 -77,-34 -77,-76 0,-42 35,-77 77,-77 42,0 76,35 76,77 0,42 -34,76 -76,76zm36 -160l0 0 40 -15 0 49c-10,-15 -24,-27 -40,-34z"/>
   <path class="fil0" d="M349 776l-35 0c-4,0 -7,3 -7,7 0,4 3,7 7,7l10 0 0 34c0,4 4,7 8,7 4,0 7,-3 7,-7l0 -34 10 0c4,0 8,-3 8,-7 0,-4 -4,-7 -8,-7z"/>
   <path class="fil0" d="M913 1041l-39 -39c-3,-3 -7,-3 -10,0 -3,3 -3,7 0,10l39 38c14,14 14,36 0,50 -7,6 -15,10 -25,10 -9,0 -18,-4 -25,-11l-51 -51c-19,-19 -49,-19 -68,0 -19,19 -19,50 0,69l18 18c-14,-5 -29,-8 -45,-8 -37,0 -71,15 -97,41 -53,53 -53,140 0,193 26,26 60,41 97,41 37,0 71,-15 97,-41 26,-25 40,-60 40,-96 0,-37 -14,-72 -40,-97 -1,-1 -1,-2 -2,-2l-59 -59c-13,-14 -13,-36 0,-49 14,-14 36,-14 50,0l51 51c9,9 21,14 34,14 13,1 26,-4 35,-14 19,-18 19,-49 0,-68zm-139 120l0 0c-16,1 -32,5 -47,10 -1,0 -1,0 -1,0 -30,-10 -61,-12 -92,-6 21,-16 46,-24 73,-24 24,0 48,7 67,20zm-139 81l0 0c-17,-1 -34,1 -50,5 1,-7 3,-15 5,-22 0,0 0,0 0,0 24,-8 45,-11 67,-10 0,0 0,1 0,1 -8,8 -16,17 -22,26zm36 -39l0 0c0,0 0,0 0,0 -25,-4 -48,-2 -74,6 4,-9 10,-18 17,-25 29,-9 62,-10 92,-4 -12,6 -24,14 -35,23zm-87 58l0 0c14,-3 28,-5 42,-6 -13,23 -21,48 -24,75 -13,-21 -19,-45 -18,-69zm31 86l0 0c1,-46 19,-89 51,-122 33,-32 79,-50 125,-51 1,1 2,2 3,3 5,5 9,10 13,15 -92,7 -165,80 -174,172 -4,-4 -9,-8 -13,-12 -2,-2 -3,-4 -5,-5zm209 -121l0 0c-41,5 -78,22 -106,49 -29,28 -47,64 -51,106 -7,-2 -14,-5 -21,-9 5,-91 78,-163 169,-167 4,7 7,14 9,21zm-3 87l0 0c-11,-23 -26,-44 -44,-61 9,-4 19,-7 29,-9 9,12 17,25 23,39 -1,11 -4,21 -8,31zm9 -59l0 0c-3,-5 -6,-10 -9,-14 2,-1 4,-1 7,-1 1,5 2,10 2,15zm-71 59l0 0c12,13 22,28 30,44 -20,18 -45,28 -71,30 4,-31 19,-58 41,-74zm-55 75l0 0c-8,0 -16,-1 -24,-3 4,-40 21,-74 47,-100 8,6 16,12 23,18 -25,19 -42,50 -46,85zm95 -41l0 0c-14,-28 -35,-53 -61,-71 8,-6 17,-12 26,-17 21,19 38,43 49,70 -4,6 -9,12 -14,18z"/>
   <path class="fil0" d="M422 2400c-1,17 13,31 30,31l3 0c-29,27 -96,92 -108,128 -6,16 -7,33 -4,48l-75 0c-19,0 -35,16 -35,36 0,19 16,35 36,35 0,0 0,0 0,0l350 0c17,0 31,-14 31,-31l0 -201c0,0 0,-1 0,-1 4,-4 8,-9 11,-14l24 0c17,0 31,-14 31,-31 -2,-25 -8,-75 -12,-100 -2,-17 -14,-30 -30,-30l-31 0c-6,0 -12,2 -17,5 -1,1 -1,1 -1,1 -17,-10 -36,-16 -56,-16 -21,0 -40,6 -57,16 0,0 0,0 0,-1 -6,-3 -12,-5 -18,-5l-30 0c-17,0 -29,13 -31,30 -3,25 -10,75 -11,100zm240 -29l0 0c0,14 -3,28 -9,40 -2,-6 -5,-12 -8,-17 -8,-11 -20,-18 -37,-22 0,0 0,-1 0,-2 0,-23 -20,-23 -28,-23 -1,0 -3,0 -5,0 -4,0 -9,0 -12,0 -2,0 -4,0 -6,0 -8,0 -28,0 -28,23 0,1 0,2 0,3 -16,4 -28,11 -36,22 -4,5 -6,10 -8,17 -6,-13 -10,-27 -10,-41 0,-52 42,-94 94,-94 51,0 93,42 93,94zm-102 38l0 0 0 26c0,5 4,9 9,9 4,0 8,-4 8,-9l0 -26c12,-3 21,-10 27,-20 29,6 35,24 35,43 -17,20 -42,32 -70,32 -28,0 -53,-12 -70,-31 0,-19 5,-37 35,-44 5,10 15,17 26,20zm9 -16l0 0c-13,0 -23,-10 -23,-23 0,-5 0,-6 11,-6 2,0 3,0 5,0 4,0 9,0 13,0 2,0 4,0 5,0 11,0 11,1 11,6 0,13 -10,23 -22,23zm-119 -93l0 0c0,-7 6,-13 14,-13l30 0c1,0 2,0 3,0 -24,20 -39,50 -39,84 0,15 4,30 9,43l-15 0c-7,0 -14,-6 -14,-14 2,-25 9,-75 12,-100zm-75 335l0 0c-2,-2 -3,-4 -5,-6 -13,-19 -16,-42 -7,-64 1,-3 2,-7 4,-10 51,0 51,18 51,25 0,21 -18,52 -43,55zm-106 26l0 0c0,0 0,0 0,0 -11,0 -19,-8 -19,-18 0,-10 8,-19 19,-19l79 0c3,5 5,10 9,15 6,8 13,16 22,22l-110 0zm310 0l0 0 -47 0c2,-4 4,-10 4,-15l0 -64c0,0 0,0 0,0 0,-8 6,-15 14,-15l12 0c8,0 14,6 14,14l0 66c0,5 1,10 3,14zm-154 -1l0 0c-13,-1 -25,-5 -35,-12 28,-11 44,-44 44,-68 0,-16 -8,-28 -23,-35 -9,-4 -20,-6 -33,-7 29,-40 88,-95 99,-106 20,30 54,49 92,49 24,0 46,-8 64,-21l0 187c0,8 -6,14 -14,14l-10 0 -2 0c-8,0 -14,-6 -14,-14l0 -66c0,-17 -14,-31 -31,-31l-12 0c-17,0 -30,14 -31,31 0,0 0,0 0,1l0 64c0,7 -6,14 -14,14l-12 0c-8,0 -14,-7 -14,-14l0 -130c0,-5 -4,-9 -8,-9 -5,0 -9,4 -9,9l0 130c0,5 2,11 5,15l-31 0c-4,0 -8,0 -11,-1zm274 -260l0 0c0,8 -7,14 -14,14l-15 0c6,-13 9,-28 9,-43 0,-34 -15,-64 -39,-84 1,0 2,0 3,0l31 0c7,0 13,6 14,13 3,25 10,75 11,100z"/>
   <path class="fil0" d="M1256 2946l-30 -135c-1,0 -1,0 -1,-1 -2,-8 -13,-15 -35,-20 -5,-22 -24,-39 -47,-39 -2,0 -3,0 -5,1 -8,-16 -24,-26 -42,-26 -5,0 -11,1 -16,3 -7,-12 -21,-20 -35,-20 -14,0 -28,8 -35,20 -5,-2 -11,-3 -16,-3 -18,0 -34,10 -43,26 -1,-1 -3,-1 -4,-1 -23,0 -43,17 -47,39 -22,6 -34,12 -36,21 0,0 0,0 0,0l-30 135c-1,0 -1,1 -1,2 0,14 22,26 66,37 42,10 94,16 146,16 52,0 104,-6 146,-16 44,-11 66,-23 66,-37 0,-1 -1,-2 -1,-2zm-66 -141l0 0c14,4 19,7 21,9 -2,2 -8,6 -28,10 4,-6 6,-12 7,-19zm-243 -39l0 0c2,0 5,0 7,1 4,1 8,-1 9,-5 5,-13 17,-21 31,-21 5,0 11,1 15,4 2,1 4,1 6,0 2,-1 4,-2 5,-4 4,-10 14,-17 25,-17 11,0 21,7 25,17 1,2 3,3 5,4 1,1 4,1 5,0 5,-3 11,-4 16,-4 14,0 26,8 31,21 1,4 5,6 9,5 2,-1 5,-1 7,-1 18,0 32,15 33,33 0,12 -9,23 -18,30 -31,4 -71,7 -113,7 -41,0 -80,-2 -111,-7 -12,-5 -20,-17 -20,-30 0,-18 15,-33 33,-33zm-47 39l0 0c1,7 3,14 7,19 -20,-4 -26,-8 -28,-10 2,-2 7,-5 21,-9zm284 166l0 0c-40,10 -89,15 -139,15 -50,0 -99,-5 -139,-15 -40,-9 -56,-19 -58,-23l27 -119c3,2 6,3 7,3 10,4 23,7 39,10 33,6 77,9 124,9 47,0 91,-3 124,-9 16,-3 29,-6 39,-10 1,0 4,-1 7,-3l27 119c-2,4 -18,14 -58,23z"/>
   <path class="fil0" d="M1134 2857c-17,0 -31,12 -34,28l-110 0c-3,-16 -17,-28 -34,-28 -19,0 -35,15 -35,34 0,8 3,15 7,21 -4,6 -7,13 -7,21 0,19 16,34 35,34 17,0 31,-12 34,-29l110 0c3,17 17,29 34,29 19,0 35,-15 35,-34 0,-8 -3,-15 -7,-21 4,-6 7,-13 7,-21 0,-19 -16,-34 -35,-34zm13 60l0 0c5,4 7,10 7,16 0,11 -9,19 -20,19 -10,0 -19,-8 -19,-19 0,-1 0,-1 0,-2 0,-2 -1,-4 -2,-5 -2,-2 -4,-2 -6,-2l-124 0c-2,0 -4,0 -6,2 -1,1 -2,3 -2,5 0,1 0,1 0,2 0,11 -9,19 -19,19 -11,0 -20,-8 -20,-19 0,-6 2,-12 7,-16 1,-1 2,-3 2,-5 0,-2 -1,-4 -2,-6 -5,-4 -7,-9 -7,-15 0,-11 9,-20 20,-20 10,0 19,9 19,20 0,1 0,1 0,1 0,2 1,4 2,6 2,1 4,2 6,2l124 0c2,0 4,-1 6,-2 1,-2 2,-4 2,-6 0,0 0,0 0,-1 0,-11 9,-20 19,-20 11,0 20,9 20,20 0,6 -2,11 -7,15 -2,2 -3,4 -3,6 0,2 1,4 3,5z"/>
   <path class="fil0" d="M2027 292c-47,0 -84,35 -84,77 0,19 9,29 27,29 9,0 20,-3 30,-5 10,-3 19,-5 27,-5 6,0 15,2 24,4 11,3 22,6 31,6 0,0 0,0 0,0 19,0 29,-10 29,-29 0,-42 -38,-77 -84,-77zm55 91l0 0 0 0c-8,0 -18,-2 -28,-4 -10,-3 -19,-5 -27,-5 -9,0 -20,3 -30,5 -9,2 -19,4 -27,4 -9,0 -13,-2 -13,-14 0,-35 31,-63 70,-63 38,0 70,28 70,63 0,11 -4,14 -15,14z"/>
   <path class="fil0" d="M1987 261c0,-26 -14,-47 -32,-47 -18,0 -32,21 -32,47 0,26 14,46 32,46 18,0 32,-20 32,-46zm-50 0l0 0c0,-19 9,-33 18,-33 9,0 18,14 18,33 0,19 -9,32 -18,32 -9,0 -18,-13 -18,-32z"/>
   <path class="fil0" d="M2029 278c18,0 33,-20 33,-47 0,-26 -15,-46 -33,-46 -18,0 -32,20 -32,46 0,27 14,47 32,47zm0 -79l0 0c9,0 18,13 18,32 0,20 -9,33 -18,33 -8,0 -18,-13 -18,-33 0,-19 10,-32 18,-32z"/>
   <path class="fil0" d="M2104 214c-19,0 -33,21 -33,47 0,26 14,46 33,46 18,0 32,-20 32,-46 0,-26 -14,-47 -32,-47zm0 79l0 0c-9,0 -19,-13 -19,-32 0,-19 10,-33 19,-33 8,0 18,14 18,33 0,19 -10,32 -18,32z"/>
   <path class="fil0" d="M2221 106c-47,0 -84,35 -84,78 0,18 10,28 27,28 10,0 20,-3 31,-5 9,-2 19,-5 26,-5 6,0 15,2 24,5 11,2 22,5 32,5l0 0c18,0 28,-10 28,-28 0,-43 -38,-78 -84,-78zm56 92l0 0 0 0c-9,0 -19,-3 -29,-5 -10,-3 -19,-5 -27,-5 -9,0 -19,3 -30,5 -9,2 -19,5 -27,5 -8,0 -13,-3 -13,-14 0,-35 31,-64 70,-64 38,0 70,29 70,64 0,10 -4,14 -14,14z"/>
   <path class="fil0" d="M2149 121c18,0 32,-20 32,-46 0,-26 -14,-47 -32,-47 -18,0 -32,21 -32,47 0,26 14,46 32,46zm0 -79l0 0c9,0 18,14 18,33 0,19 -9,32 -18,32 -8,0 -18,-13 -18,-32 0,-19 10,-33 18,-33z"/>
   <path class="fil0" d="M2223 92c19,0 33,-20 33,-46 0,-26 -14,-47 -33,-47 -18,0 -32,21 -32,47 0,26 14,46 32,46zm0 -79l0 0c9,0 19,14 19,33 0,19 -10,32 -19,32 -8,0 -18,-13 -18,-32 0,-19 10,-33 18,-33z"/>
   <path class="fil0" d="M2298 28c-18,0 -33,21 -33,47 0,26 15,46 33,46 18,0 32,-20 32,-46 0,-26 -14,-47 -32,-47zm0 79l0 0c-9,0 -18,-13 -18,-32 0,-19 9,-33 18,-33 8,0 18,14 18,33 0,19 -10,32 -18,32z"/>
  </g>
 </g>
</svg>
