<?xml version="1.0" encoding="UTF-8"?>
<!DOCTYPE svg PUBLIC "-//W3C//DTD SVG 1.1//EN" "http://www.w3.org/Graphics/SVG/1.1/DTD/svg11.dtd">
<!-- Creator: CorelDRAW X8 -->
<svg xmlns="http://www.w3.org/2000/svg" xml:space="preserve" width="1000px" height="1000px" version="1.1" style="shape-rendering:geometricPrecision; text-rendering:geometricPrecision; image-rendering:optimizeQuality; fill-rule:evenodd; clip-rule:evenodd"
viewBox="0 0 10000 10000"
 xmlns:xlink="http://www.w3.org/1999/xlink"
 enable-background="new 0 0 128 128">
 <defs>
  <style type="text/css">
   <![CDATA[
    .fil0 {fill:black}
    .fil7 {fill:black}
    .fil6 {fill:#BADDFD}
    .fil8 {fill:#FEA6E2}
    .fil5 {fill:#FEFEFE;fill-rule:nonzero}
    .fil3 {fill:#6F7070;fill-rule:nonzero}
    .fil4 {fill:#6CB96A;fill-rule:nonzero}
    .fil2 {fill:#1D1D1E;fill-rule:nonzero}
    .fil1 {fill:#1D1D1D;fill-rule:nonzero}
   ]]>
  </style>
 </defs>
 <g id="Слой_x0020_1">
  <metadata id="CorelCorpID_0Corel-Layer"/>
  <path class="fil0" d="M1456 216c-5,-5 -13,-9 -25,-15 -6,-4 -17,-9 -19,-11 10,-13 16,-28 16,-41 0,-9 0,-19 -4,-29 -5,-9 -15,-19 -37,-19 -22,0 -31,10 -36,19 -5,10 -5,20 -5,29 0,13 6,28 17,41 -3,2 -13,7 -19,11 -13,6 -21,10 -25,15 -11,10 -12,28 -12,31 0,4 2,7 4,10 3,2 6,4 10,4l133 0c4,0 7,-2 9,-4 3,-3 4,-6 4,-10 0,-3 -1,-21 -11,-31zm0 34c0,0 -1,1 -2,1l-133 0c-1,0 -2,-1 -3,-1 0,-1 -1,-2 -1,-3 0,-1 1,-16 9,-24 3,-4 11,-8 22,-13 12,-6 19,-10 22,-13l7 -6 -6 -7c-9,-12 -15,-24 -15,-35 0,-8 0,-17 4,-25 5,-9 14,-13 27,-13 14,0 23,4 28,13 3,8 3,17 3,25 0,11 -5,23 -14,35l-6 7 7 6c3,3 9,7 21,13 12,5 19,9 23,13 6,6 8,18 8,24 0,1 0,2 -1,3z"/>
  <path class="fil1" d="M267 120l-149 0c-9,0 -16,8 -16,17l0 108c0,9 7,16 16,16l149 0c9,0 16,-7 16,-16l0 -108c0,-9 -7,-17 -16,-17zm5 20l0 0 0 101 -50 -50 50 -51zm-150 -8l0 0 142 0 -71 72 -71 -72zm49 67l0 0 18 17c1,2 2,2 4,2l0 0c2,0 3,0 4,-2l17 -17 50 50 -142 0 49 -50zm-8 -9l0 0 -49 51 0 -101 49 50z"/>
  <path class="fil1" d="M810 100c-14,0 -28,6 -37,17 -9,-11 -23,-17 -37,-17 -27,0 -49,21 -49,48 0,20 13,44 37,71 19,20 39,35 45,40l4 2 4 -2c6,-5 26,-20 45,-40 24,-27 37,-51 37,-71 0,-27 -22,-48 -49,-48zm36 48l0 0c0,17 -11,39 -33,62 -15,17 -32,30 -40,36 -8,-6 -25,-19 -40,-36 -22,-23 -33,-45 -33,-62 0,-20 16,-36 36,-36 13,0 25,7 32,19l5 9 5 -9c7,-12 19,-19 32,-19 20,0 36,16 36,36z"/>
  <path class="fil2" d="M349 832c-3,-4 -8,-8 -12,-12 -23,-20 -49,-31 -77,-31 -27,0 -54,11 -77,31 -4,4 -8,8 -12,12 -1,1 -3,3 -4,5 -19,24 -33,56 -35,88 -1,30 10,61 34,82l2 3c24,19 58,30 92,30 35,0 68,-11 93,-30l3 -3c24,-21 33,-52 32,-82 -2,-32 -14,-64 -34,-88 -1,-2 -3,-4 -5,-5zm0 -25l0 0c6,4 10,8 15,13 1,2 2,3 4,5 22,28 36,63 37,99 2,35 -9,71 -38,96 0,1 -2,2 -3,3 -28,23 -65,34 -104,34 -37,0 -76,-11 -103,-34l-3 -2c-30,-26 -41,-62 -39,-97 1,-36 15,-71 39,-99 1,-2 2,-3 3,-5 5,-5 9,-9 14,-13 26,-24 58,-35 89,-35 32,0 63,11 89,35z"/>
  <path class="fil2" d="M249 995c-3,-2 -6,-3 -9,-5 -3,-2 -6,-5 -8,-7 -2,-2 -6,-7 -10,-14 -2,-4 -3,-9 -3,-15 0,-13 7,-21 16,-25 8,-3 17,-4 25,-4 8,0 17,1 26,4 10,4 17,12 17,25 0,6 -2,11 -4,15 -3,7 -8,12 -10,14 -2,2 -4,4 -8,7 -4,2 -7,3 -10,5 -9,3 -21,0 -21,0l-1 0zm1 -20l0 0c2,1 3,2 5,3 2,0 7,1 10,0 2,-1 3,-2 5,-3 2,-1 4,-4 5,-5 2,-2 6,-5 8,-9 1,-2 2,-4 2,-7 0,-5 -3,-7 -7,-9 -5,-2 -12,-2 -18,-2 -6,0 -13,0 -18,2 -3,2 -6,4 -6,9 0,3 1,5 2,7 2,4 5,7 7,9 1,1 3,4 5,5z"/>
  <polygon class="fil2" points="251,1054 251,987 269,987 269,1054 "/>
  <polygon class="fil2" points="324,930 415,907 419,924 328,947 "/>
  <polygon class="fil2" points="328,974 420,995 416,1012 324,991 "/>
  <polygon class="fil2" points="192,947 101,924 105,907 196,930 "/>
  <polygon class="fil2" points="196,991 104,1012 100,995 192,974 "/>
  <path class="fil2" d="M378 873c5,-10 8,-28 10,-48 1,-16 1,-33 -3,-47l-1 1c-2,0 -15,5 -29,13 -10,4 -17,10 -22,15l-13 -12c6,-7 15,-13 25,-19 16,-9 32,-15 36,-16l17 -4 4 18c4,15 5,34 4,53 -2,21 -6,41 -12,54l-16 -8z"/>
  <path class="fil2" d="M126 881c-5,-13 -10,-33 -11,-54 -2,-19 -1,-38 3,-53l4 -18 18 4c5,1 21,7 35,16 10,6 19,12 25,19l-13 12c-5,-5 -12,-11 -20,-15 -14,-8 -28,-13 -30,-13l-2 -1c-3,14 -4,31 -3,47 2,20 7,38 11,48l-17 8z"/>
  <path class="fil2" d="M225 874c8,0 14,6 14,14 0,8 -6,14 -14,14 -8,0 -14,-6 -14,-14 0,-8 6,-14 14,-14z"/>
  <path class="fil2" d="M296 874c8,0 14,6 14,14 0,8 -6,14 -14,14 -8,0 -14,-6 -14,-14 0,-8 6,-14 14,-14z"/>
  <path class="fil2" d="M1115 1016c2,3 3,5 5,7 11,10 26,16 41,16 17,1 33,-4 47,-13 3,-3 6,-5 9,-8 22,-22 13,-70 4,-115 -2,-13 -4,-27 -6,-39 -4,-29 -17,-50 -35,-65 -21,-17 -47,-26 -73,-25 -27,-1 -53,8 -73,25 -18,15 -31,36 -35,65 -2,12 -4,26 -7,39 -9,45 -18,93 4,115 3,3 6,5 9,8 14,9 32,14 48,13 15,0 30,-6 41,-16 2,-2 4,-4 5,-7l16 0zm-7 20l0 0 0 -1 -1 0c-14,14 -34,21 -54,22 -19,0 -41,-5 -58,-17 -4,-3 -8,-6 -11,-10 -29,-28 -19,-80 -9,-130 2,-13 4,-27 6,-39 5,-33 20,-58 41,-76 24,-20 54,-29 85,-29 30,0 60,9 85,29 20,18 36,43 40,76 2,12 4,26 7,39 10,50 20,102 -9,130 -4,4 -8,7 -12,10 -16,12 -37,17 -57,17 -20,-1 -39,-8 -53,-21z"/>
  <path class="fil2" d="M1134 958c1,-1 1,-3 1,-4 0,-2 0,-3 -1,-5 -1,-1 -2,-2 -3,-3 -1,0 -3,-1 -4,-1l-38 0c-1,0 -3,1 -4,1 -1,1 -3,2 -3,3 -1,2 -2,3 -2,5 0,1 1,3 2,4l17 30c1,2 3,3 5,4 1,1 3,1 4,1 2,0 4,0 5,-1 2,-1 3,-2 4,-4l17 -30zm19 -4l0 0c0,4 -1,9 -3,13l-18 30c-2,4 -6,8 -10,10 -4,3 -9,4 -14,4 -5,0 -10,-1 -14,-4 -4,-2 -8,-6 -10,-10l-18 -30c-2,-4 -3,-9 -3,-13 0,-5 1,-9 3,-13 3,-5 6,-8 10,-10 4,-2 9,-4 13,-4l38 0c4,0 9,2 13,4 4,2 7,5 9,10 3,4 4,8 4,13z"/>
  <path class="fil2" d="M1036 789c-7,-4 -16,-9 -23,-13 -3,-2 -7,-3 -11,-2 -4,1 -7,3 -10,7l-45 74c-3,4 -5,10 -6,15 -1,5 -1,12 1,17 4,17 27,30 43,39l2 1 -9 15 -2 -1c-19,-10 -45,-25 -51,-49 -2,-8 -3,-17 -2,-25 1,-7 4,-15 8,-22 15,-23 31,-51 46,-74 5,-7 13,-12 21,-14 8,-2 17,-1 24,4 8,3 17,9 23,13l-9 15z"/>
  <path class="fil2" d="M1171 774c7,-4 16,-10 22,-13 8,-5 17,-6 25,-4 8,2 16,7 21,14 16,23 31,51 45,74 5,7 7,15 8,22 2,8 1,17 -1,25 -6,24 -32,39 -51,49l-2 1 -9 -15 2 -1c17,-9 39,-22 43,-39 1,-5 2,-12 1,-17 -1,-5 -3,-11 -6,-15l-45 -74c-3,-4 -6,-6 -10,-7 -4,-1 -8,0 -11,2 -8,5 -15,9 -22,13l-10 -15z"/>
  <path class="fil2" d="M1060 851c9,0 17,8 17,17 0,10 -8,18 -17,18 -10,0 -17,-8 -17,-18 0,-9 7,-17 17,-17z"/>
  <path class="fil2" d="M1156 851c10,0 17,8 17,17 0,10 -7,18 -17,18 -9,0 -17,-8 -17,-18 0,-9 8,-17 17,-17z"/>
  <path class="fil2" d="M1170 980c5,0 9,3 9,8 0,4 -4,8 -9,8 -4,0 -8,-4 -8,-8 0,-5 4,-8 8,-8z"/>
  <path class="fil2" d="M1198 962c4,0 8,3 8,8 0,4 -4,8 -8,8 -5,0 -8,-4 -8,-8 0,-5 3,-8 8,-8z"/>
  <path class="fil2" d="M1198 999c4,0 8,3 8,8 0,4 -4,8 -8,8 -5,0 -8,-4 -8,-8 0,-5 3,-8 8,-8z"/>
  <path class="fil2" d="M1046 980c4,0 8,3 8,8 0,4 -4,8 -8,8 -5,0 -8,-4 -8,-8 0,-5 3,-8 8,-8z"/>
  <path class="fil2" d="M1018 962c5,0 8,3 8,8 0,4 -3,8 -8,8 -4,0 -8,-4 -8,-8 0,-5 4,-8 8,-8z"/>
  <path class="fil2" d="M1018 999c5,0 8,3 8,8 0,4 -3,8 -8,8 -4,0 -8,-4 -8,-8 0,-5 4,-8 8,-8z"/>
  <polygon class="fil2" points="1097,1029 1097,999 1116,999 1116,1029 "/>
  <path class="fil2" d="M1970 756c-58,0 -105,48 -105,106 0,20 6,39 16,55l83 136c2,2 5,4 8,4 0,0 0,0 0,0 3,0 6,-2 7,-5l82 -136c9,-16 15,-35 15,-54 0,-58 -48,-106 -106,-106zm76 151l0 0 -74 124 -76 -123c-9,-14 -13,-30 -13,-46 0,-49 39,-88 87,-88 49,0 88,39 88,88 0,16 -4,31 -12,45z"/>
  <path class="fil2" d="M1971 802c-29,0 -53,24 -53,53 0,29 23,53 53,53 29,0 52,-25 52,-53 0,-29 -23,-53 -52,-53zm0 88l0 0c-20,0 -36,-16 -36,-35 0,-20 16,-35 36,-35 19,0 35,15 35,35 0,19 -16,35 -35,35z"/>
  <path class="fil2" d="M2840 1057c-3,0 -5,-1 -7,-3l-60 -61c-4,-3 -4,-10 0,-13 4,-4 10,-4 14,0l53 53 53 -53c4,-4 10,-4 14,0 4,3 4,10 0,13l-60 61c-2,2 -5,3 -7,3z"/>
  <path class="fil3" d="M142 1650l-10 0c-3,0 -5,2 -5,5 0,3 2,5 5,5l10 0c3,0 5,-2 5,-5 0,-3 -2,-5 -5,-5z"/>
  <path class="fil3" d="M177 1650l-10 0c-3,0 -5,2 -5,5 0,3 2,5 5,5l10 0c3,0 5,-2 5,-5 0,-3 -2,-5 -5,-5z"/>
  <path class="fil3" d="M212 1650l-10 0c-3,0 -5,2 -5,5 0,3 2,5 5,5l10 0c3,0 5,-2 5,-5 0,-3 -2,-5 -5,-5z"/>
  <path class="fil3" d="M227 1595l-15 0 0 -10c0,-3 -2,-5 -5,-5 -3,0 -5,2 -5,5l0 10 -60 0 0 -10c0,-3 -2,-5 -5,-5 -3,0 -5,2 -5,5l0 10 -15 0c-8,0 -15,7 -15,15l0 95c0,8 7,15 15,15l110 0c8,0 15,-7 15,-15l0 -95c0,-8 -7,-15 -15,-15zm5 110l0 0c0,3 -2,5 -5,5l-110 0c-3,0 -5,-2 -5,-5l0 -65 120 0 0 65zm0 -75l0 0 -120 0 0 -20c0,-3 2,-5 5,-5l15 0 0 10c0,3 2,5 5,5 3,0 5,-2 5,-5l0 -10 60 0 0 10c0,3 2,5 5,5 3,0 5,-2 5,-5l0 -10 15 0c3,0 5,2 5,5l0 20z"/>
  <path class="fil3" d="M142 1670l-10 0c-3,0 -5,2 -5,5 0,3 2,5 5,5l10 0c3,0 5,-2 5,-5 0,-3 -2,-5 -5,-5z"/>
  <path class="fil3" d="M177 1670l-10 0c-3,0 -5,2 -5,5 0,3 2,5 5,5l10 0c3,0 5,-2 5,-5 0,-3 -2,-5 -5,-5z"/>
  <path class="fil3" d="M212 1670l-10 0c-3,0 -5,2 -5,5 0,3 2,5 5,5l10 0c3,0 5,-2 5,-5 0,-3 -2,-5 -5,-5z"/>
  <path class="fil3" d="M142 1690l-10 0c-3,0 -5,2 -5,5 0,3 2,5 5,5l10 0c3,0 5,-2 5,-5 0,-3 -2,-5 -5,-5z"/>
  <path class="fil3" d="M177 1690l-10 0c-3,0 -5,2 -5,5 0,3 2,5 5,5l10 0c3,0 5,-2 5,-5 0,-3 -2,-5 -5,-5z"/>
  <path class="fil3" d="M212 1690l-10 0c-3,0 -5,2 -5,5 0,3 2,5 5,5l10 0c3,0 5,-2 5,-5 0,-3 -2,-5 -5,-5z"/>
  <path class="fil3" d="M833 1667c-1,-2 -35,-47 -79,-47 -43,0 -77,45 -79,47 -1,2 -1,4 0,6 2,2 36,47 79,47 44,0 78,-45 79,-47 2,-2 2,-4 0,-6zm-79 43l0 0c-32,0 -60,-30 -68,-40 8,-10 36,-40 68,-40 32,0 60,30 68,40 -8,10 -36,40 -68,40z"/>
  <path class="fil3" d="M754 1639c-17,0 -31,14 -31,31 0,17 14,31 31,31 18,0 32,-14 32,-31 0,-17 -14,-31 -32,-31zm0 52l0 0c-11,0 -21,-9 -21,-21 0,-11 10,-21 21,-21 12,0 21,10 21,21 0,12 -9,21 -21,21z"/>
  <path class="fil3" d="M1398 1654l0 -8 -14 0 7 -26 -10 0 -7 26 -32 0 7 -26 -10 0 -7 26 -18 0 0 8 16 0 -8 32 -16 0 0 8 14 0 -7 27 10 0 7 -27 32 0 -7 27 10 0 7 -27 18 0 0 -8 -16 0 8 -32 16 0zm-26 0l0 0 -8 32 -32 0 8 -32 32 0z"/>
  <polygon class="fil4" points="601,2814 100,2814 100,2304 601,2304 "/>
  <path class="fil5" d="M394 2466l29 0c6,0 12,-6 12,-12l0 -49c0,-6 -6,-11 -12,-11l-41 0c0,0 -1,0 -2,0 -7,0 -34,1 -55,21 -23,22 -21,47 -20,54l0 31 -29 0c-7,0 -12,6 -12,12l0 52c0,7 5,12 12,12l27 0 0 136c0,7 6,12 12,12l58 0c6,0 11,-5 11,-12l0 -135 33 0c6,0 11,-5 12,-11l5 -53c1,-3 0,-6 -2,-9 -3,-2 -6,-4 -9,-4l-39 0 0 -26c0,-6 2,-8 10,-8zm-16 48l0 0 43 0 -5 49 -38 0c-4,0 -7,3 -7,7l0 141 -55 0 0 -142c0,-3 -2,-6 -6,-6l-33 0 0 -49 35 0c3,0 6,-3 6,-7l0 -39c0,0 0,0 0,-1 -1,-4 -3,-25 16,-42 17,-17 40,-18 46,-18 1,0 2,0 2,0 0,0 0,0 0,0l40 0 0 45 -28 0c-14,0 -23,8 -23,22l0 33c0,4 3,7 7,7z"/>
  <polygon class="fil4" points="1582,2814 1082,2814 1082,2304 1582,2304 "/>
  <path class="fil5" d="M1478 2610c-7,-9 -15,-16 -22,-24 -3,-2 -6,-5 -8,-8l0 0c-4,-3 -6,-6 -6,-8 0,-1 1,-4 4,-8 4,-6 9,-12 13,-18 4,-5 8,-11 12,-16l1 -1c7,-11 15,-22 19,-35 1,-4 2,-10 -1,-15 -2,-5 -8,-6 -12,-7 -2,0 -4,0 -5,0l-49 0c-8,0 -14,4 -17,12 -3,6 -6,14 -9,21 -7,14 -16,30 -28,43l0 1c-1,1 -3,2 -3,2 -2,0 -3,-5 -3,-8 0,0 0,0 0,0l0 -57c0,-1 0,-1 0,-1 -1,-8 -3,-17 -16,-19 -1,0 -1,0 -1,0l-51 0c-10,0 -15,4 -19,9 -1,1 -4,5 -2,10 1,4 6,5 8,6 5,1 8,4 9,10 2,12 2,24 1,40 -1,4 -2,7 -3,9 0,1 0,2 0,2 -1,0 -1,-1 -2,-1 -4,-3 -7,-7 -9,-11 -12,-16 -21,-34 -29,-55 -4,-8 -10,-13 -18,-13 -16,0 -30,0 -44,0 -7,0 -12,2 -14,6 -3,4 -3,10 0,16 20,44 37,76 57,104 15,20 29,33 46,43 17,10 37,15 59,15 3,0 6,0 8,0 14,-1 20,-6 21,-20 0,-8 1,-14 3,-19 1,-1 2,-2 3,-2 1,-1 2,0 3,1 3,2 5,4 7,6 2,2 4,4 6,6 4,5 8,10 12,14 10,10 21,15 34,14l44 0 0 0c0,0 0,0 1,0 5,0 9,-3 12,-8 3,-6 3,-13 0,-19 -4,-7 -8,-13 -12,-17zm1 30l0 0c-1,1 -2,1 -2,1l-45 0c0,0 0,0 0,0 0,0 0,0 0,0 -9,1 -16,-3 -24,-10 -4,-4 -8,-9 -12,-13 -1,-2 -3,-5 -5,-7 -3,-2 -6,-6 -10,-8 -5,-4 -10,-4 -13,-3 -3,1 -7,3 -11,9 -4,8 -5,16 -5,24 0,5 -1,6 -2,6 0,1 -1,2 -6,2 -24,1 -44,-3 -61,-13 -15,-9 -28,-22 -41,-40 -20,-27 -37,-58 -56,-102 -1,-1 -1,-2 -1,-3 0,0 1,0 3,0 14,0 28,0 43,0 3,0 5,1 7,5 8,22 18,41 30,58 3,4 7,10 13,14 5,3 10,3 12,2 3,0 7,-3 9,-9 2,-3 3,-8 3,-13 2,-17 1,-30 -1,-43 -1,-9 -6,-16 -13,-19 1,-1 3,-1 5,-1l50 0c3,0 3,1 4,1 0,2 1,4 1,6l0 57c0,5 3,17 11,21 0,0 1,0 1,0 8,2 13,-3 16,-6l0 -1c14,-14 23,-31 30,-46 4,-8 7,-16 9,-22 2,-4 3,-4 6,-4 0,0 0,0 0,0l49 0c1,0 2,0 3,0 2,0 3,1 4,1 0,0 0,2 -1,4 -4,11 -10,21 -18,31l-1 1c-3,5 -7,11 -11,16 -5,6 -9,12 -14,18 -9,13 -8,22 4,34 2,2 5,5 8,8 8,7 15,14 21,22 4,4 8,9 10,15 2,3 1,5 1,7z"/>
  <polygon class="fil4" points="2564,2814 2063,2814 2063,2304 2564,2304 "/>
  <path class="fil5" d="M2413 2445l-29 0c-9,0 -16,7 -16,16l0 29c0,9 7,16 16,16l29 0c8,0 15,-7 15,-16l0 -29c0,-9 -7,-16 -15,-16zm3 45l0 0c0,2 -1,4 -3,4l-29 0c-2,0 -4,-2 -4,-4l0 -29c0,-2 2,-4 4,-4l29 0c2,0 3,2 3,4l0 29z"/>
  <path class="fil5" d="M2397 2414l-167 0c-34,0 -62,28 -62,63l0 42 0 12 0 110c0,35 28,63 62,63l167 0c34,0 62,-28 62,-63l0 -110 0 -12 0 -42c0,-35 -28,-63 -62,-63zm50 227l0 0c0,28 -23,51 -50,51l-167 0c-27,0 -50,-23 -50,-51l0 -110 74 0c-15,16 -25,38 -25,62 0,48 38,86 85,86 46,0 84,-38 84,-86 0,-24 -10,-46 -25,-62l74 0 0 110zm-61 -48l0 0c0,41 -32,74 -72,74 -41,0 -73,-33 -73,-74 0,-41 32,-74 73,-74 40,0 72,33 72,74zm-29 -74l0 0c-13,-8 -28,-13 -43,-13 -16,0 -31,5 -44,13l-90 0 0 -42c0,-28 23,-51 50,-51l167 0c27,0 50,23 50,51l0 42 -90 0z"/>
  <path class="fil5" d="M2259 2593c0,31 24,56 55,56 30,0 54,-25 54,-56 0,-31 -24,-56 -54,-56 -31,0 -55,25 -55,56zm97 0l0 0c0,24 -19,43 -42,43 -24,0 -43,-19 -43,-43 0,-24 19,-43 43,-43 23,0 42,19 42,43z"/>
  <path class="fil2" d="M1941 260c3,0 6,-3 6,-6l0 -67 67 0c4,0 7,-3 7,-7 0,-3 -3,-6 -7,-6l-67 0 0 -67c0,-3 -3,-6 -6,-6 -4,0 -6,3 -6,6l0 67 -68 0c-3,0 -6,3 -6,6 0,4 3,7 6,7l68 0 0 67c0,3 2,6 6,6z"/>
  <circle class="fil6" cx="198" cy="3245" r="98"/>
  <path class="fil7" d="M248 3187l-30 0c-4,0 -8,4 -8,8 0,5 4,8 8,8l10 0 -22 23c-7,-5 -15,-7 -24,-7 -11,0 -22,4 -30,12 -16,16 -16,43 0,60 8,8 19,12 30,12 11,0 22,-4 30,-12 15,-15 16,-37 5,-54l23 -22 0 10c0,4 3,8 8,8 4,0 8,-4 8,-8l0 -30c0,-4 -4,-8 -8,-8zm-47 92c-5,5 -12,8 -19,8 -7,0 -13,-3 -18,-8 -11,-10 -11,-26 0,-37 5,-5 11,-7 18,-7 7,0 14,2 19,7 10,11 10,27 0,37z"/>
  <circle class="fil8" cx="537" cy="3245" r="98"/>
  <path class="fil7" d="M546 3258c19,-4 33,-22 33,-42 0,-37 -45,-56 -72,-30 -24,24 -11,65 22,72l0 22c-18,0 -21,-2 -21,10 0,9 11,7 21,7 0,17 -2,20 10,20 9,0 7,-12 7,-20 17,0 20,2 20,-11 0,-9 -11,-6 -20,-6l0 -22zm-35 -42c0,-14 11,-26 26,-26 23,0 35,28 19,45 -17,16 -45,5 -45,-19z"/>
  <path class="fil1" d="M1900 1604c-11,0 -22,5 -30,14 -8,-9 -19,-14 -30,-14 -22,0 -40,18 -40,39 0,17 10,37 30,58 16,17 32,29 37,33l3 2 3 -2c5,-4 21,-16 37,-33 20,-21 30,-41 30,-58 0,-21 -18,-39 -40,-39zm30 39l0 0c0,14 -10,32 -28,51 -12,14 -25,24 -32,30 -7,-6 -20,-16 -32,-30 -18,-19 -28,-37 -28,-51 0,-16 13,-29 30,-29 10,0 20,6 26,15l4 8 4 -8c6,-9 16,-15 26,-15 17,0 30,13 30,29z"/>
 </g>
</svg>
